<svg width="63" height="63" viewBox="0 0 63 63" fill="none" xmlns="http://www.w3.org/2000/svg">
<g clip-path="url(#clip0_66_543)">
<path d="M52.9516 28.4318H10.0497C6.39505 28.4318 3.42261 31.4046 3.42261 35.0594V41.1974V43.1632L5.36749 43.4416C6.49152 43.6028 7.33993 44.5807 7.33993 45.7158C7.33993 46.851 6.49201 47.8289 5.36847 47.99L3.42261 48.2683V50.2344V56.3734C3.42261 60.0271 6.39505 63 10.0497 63H52.9516C56.6062 63 59.5791 60.0271 59.5791 56.3734V50.2755V48.1113L57.417 48.0102C56.1888 47.9532 55.2258 46.9452 55.2258 45.716C55.2258 44.4877 56.1888 43.4797 57.4179 43.4216L59.5791 43.3195V41.1563V35.0594C59.5791 31.4046 56.6062 28.4318 52.9516 28.4318ZM57.3109 41.1563C54.8886 41.2715 52.9586 43.2654 52.9586 45.716C52.9586 48.1674 54.8886 50.1623 57.3109 50.2755V56.3734C57.3109 58.7808 55.3588 60.7327 52.9516 60.7327H10.0497C7.64176 60.7327 5.68987 58.7808 5.68987 56.3734V50.2344C7.90361 49.917 9.60719 48.0182 9.60719 45.7158C9.60719 43.4145 7.90348 41.5156 5.68987 41.1974V35.0594C5.68987 32.651 7.64176 30.6991 10.0497 30.6991H52.9516C55.3588 30.6991 57.3109 32.651 57.3109 35.0594V41.1563Z" fill="black"/>
<path d="M17.9416 54.0692H16.4417V57.982H17.9416V54.0692Z" fill="black"/>
<path d="M17.9416 47.1964H16.4417V51.1083H17.9416V47.1964Z" fill="black"/>
<path d="M17.9416 40.3225H16.4417V44.2354H17.9416V40.3225Z" fill="black"/>
<path d="M17.9416 33.4498H16.4417V37.3626H17.9416V33.4498Z" fill="black"/>
<path d="M13.6884 22.2417L12.3776 22.9704L14.28 26.3887L15.5903 25.6601L13.6884 22.2417Z" fill="black"/>
<path d="M61.2188 22.0285L58.2539 16.6992L57.2009 14.8092L55.263 15.7721C54.162 16.3187 52.8307 15.9063 52.234 14.8322C51.6354 13.7591 51.9878 12.4098 53.0328 11.7622L54.8726 10.622L53.8196 8.73104L50.8556 3.40385C49.0788 0.210905 45.0359 -0.94229 41.8417 0.835491L4.35264 21.693C1.15896 23.4698 0.0068711 27.5138 1.78367 30.707L1.89133 30.9011C2.2937 30.1144 2.80557 29.3947 3.40776 28.759C2.81677 26.8342 3.62457 24.693 5.45477 23.674L42.9448 2.8163C45.0489 1.64514 47.7035 2.40188 48.8747 4.50598L51.8386 9.83416C49.7775 11.1114 49.0609 13.794 50.252 15.9351C51.4432 18.0762 54.0998 18.8811 56.272 17.8019L59.2368 23.1313C60.1318 24.7378 59.8935 26.6618 58.7974 28.0041C59.3851 28.4915 59.9035 29.0572 60.354 29.6737C62.1879 27.627 62.6283 24.562 61.2188 22.0285Z" fill="black"/>
</g>
<defs>
<clipPath id="clip0_66_543">
<rect width="63" height="63" fill="white"/>
</clipPath>
</defs>
</svg>
