<svg width="63" height="63" viewBox="0 0 63 63" fill="none" xmlns="http://www.w3.org/2000/svg">
<g clip-path="url(#clip0_66_601)">
<path d="M52.9516 28.4319H10.0497C6.39511 28.4319 3.42267 31.4047 3.42267 35.0594V41.1975V43.1633L5.36755 43.4416C6.49158 43.6028 7.33999 44.5808 7.33999 45.7159C7.33999 46.851 6.49207 47.829 5.36853 47.9901L3.42267 48.2684V50.2344V56.3735C3.42267 60.0271 6.39511 63.0001 10.0497 63.0001H52.9516C56.6062 63.0001 59.5792 60.0271 59.5792 56.3735V50.2755V48.1114L57.4171 48.0102C56.1889 47.9533 55.2259 46.9453 55.2259 45.716C55.2259 44.4878 56.1889 43.4798 57.418 43.4217L59.5792 43.3196V41.1564V35.0594C59.5792 31.4047 56.6062 28.4319 52.9516 28.4319ZM57.3109 41.1564C54.8886 41.2716 52.9586 43.2654 52.9586 45.716C52.9586 48.1675 54.8886 50.1623 57.3109 50.2755V56.3735C57.3109 58.7809 55.3589 60.7328 52.9516 60.7328H10.0497C7.64182 60.7328 5.68993 58.7809 5.68993 56.3735V50.2344C7.90367 49.9171 9.60725 48.0182 9.60725 45.7159C9.60725 43.4146 7.90354 41.5157 5.68993 41.1975V35.0594C5.68993 32.651 7.64182 30.6991 10.0497 30.6991H52.9516C55.3589 30.6991 57.3109 32.651 57.3109 35.0594V41.1564Z" fill="black"/>
<path d="M17.9416 54.0691H16.4417V57.982H17.9416V54.0691Z" fill="black"/>
<path d="M17.9416 47.1963H16.4417V51.1082H17.9416V47.1963Z" fill="black"/>
<path d="M17.9416 40.3225H16.4417V44.2354H17.9416V40.3225Z" fill="black"/>
<path d="M17.9416 33.4497H16.4417V37.3625H17.9416V33.4497Z" fill="black"/>
<path d="M13.6883 22.2417L12.3775 22.9704L14.2799 26.3887L15.5903 25.6601L13.6883 22.2417Z" fill="black"/>
<path d="M61.2188 22.0285L58.2539 16.6992L57.2009 14.8092L55.263 15.7721C54.162 16.3187 52.8307 15.9063 52.234 14.8322C51.6354 13.7591 51.9878 12.4098 53.0328 11.7622L54.8726 10.622L53.8196 8.73104L50.8556 3.40385C49.0788 0.210905 45.0359 -0.94229 41.8417 0.835491L4.35264 21.693C1.15896 23.4698 0.0068711 27.5138 1.78367 30.707L1.89133 30.9011C2.2937 30.1144 2.80557 29.3947 3.40776 28.759C2.81677 26.8342 3.62457 24.693 5.45477 23.674L42.9448 2.8163C45.0489 1.64514 47.7035 2.40188 48.8747 4.50598L51.8386 9.83416C49.7775 11.1114 49.0609 13.794 50.252 15.9351C51.4432 18.0762 54.0998 18.8811 56.272 17.8019L59.2368 23.1313C60.1318 24.7378 59.8935 26.6618 58.7974 28.0041C59.3851 28.4915 59.9035 29.0572 60.354 29.6737C62.1879 27.627 62.6283 24.562 61.2188 22.0285Z" fill="black"/>
</g>
<defs>
<clipPath id="clip0_66_601">
<rect width="63" height="63" fill="white"/>
</clipPath>
</defs>
</svg>
