<svg width="834" height="231" viewBox="0 0 834 231" fill="none" xmlns="http://www.w3.org/2000/svg">
<circle cx="501" cy="47" r="47" fill="#D9D9D9"/>
<circle cx="644" cy="47" r="47" fill="#D9D9D9"/>
<circle cx="787" cy="47" r="47" fill="#D9D9D9"/>
<circle cx="501" cy="174" r="47" fill="#D9D9D9"/>
<circle cx="644" cy="174" r="47" fill="#D9D9D9"/>
<circle cx="787" cy="174" r="47" fill="#D9D9D9"/>
<circle cx="190" cy="174" r="47" fill="#F15C5C"/>
<path d="M214.667 157.133C213.188 155.625 211.425 154.424 209.48 153.6C207.535 152.776 205.446 152.346 203.333 152.333C198.133 152.333 192.667 156.467 190 161C187.333 156.467 181.867 152.333 176.667 152.333C174.554 152.346 172.465 152.776 170.52 153.6C168.575 154.424 166.812 155.625 165.333 157.133C163.843 158.619 162.663 160.386 161.861 162.331C161.06 164.277 160.654 166.363 160.667 168.467C160.683 169.317 160.772 170.165 160.933 171H166.4C166.147 170.179 166.013 169.326 166 168.467C165.997 167.07 166.28 165.687 166.83 164.403C167.38 163.12 168.187 161.961 169.2 161C170.157 159.98 171.314 159.17 172.599 158.619C173.884 158.068 175.269 157.789 176.667 157.8C179.6 157.8 183.467 160.467 185.333 163.667L188.8 169.667C188.935 169.859 189.115 170.016 189.324 170.125C189.533 170.233 189.765 170.29 190 170.29C190.235 170.29 190.467 170.233 190.676 170.125C190.885 170.016 191.065 169.859 191.2 169.667L194.667 163.667C196.533 160.467 200.4 157.8 203.333 157.8C204.731 157.789 206.116 158.068 207.401 158.619C208.686 159.17 209.843 159.98 210.8 161C211.813 161.961 212.62 163.12 213.17 164.403C213.72 165.687 214.003 167.07 214 168.467C214 170.867 212.8 173.4 210.4 176.333H192.533L190 180.467L183.2 169C183.065 168.807 182.885 168.65 182.676 168.542C182.467 168.433 182.235 168.377 182 168.377C181.765 168.377 181.533 168.433 181.324 168.542C181.115 168.65 180.935 168.807 180.8 169L176.533 176.333H167.333C166.947 176.329 166.564 176.409 166.211 176.567C165.859 176.725 165.545 176.958 165.291 177.25C165.037 177.542 164.85 177.885 164.742 178.256C164.634 178.628 164.609 179.018 164.667 179.4C164.792 180.047 165.142 180.629 165.654 181.043C166.166 181.458 166.808 181.679 167.467 181.667H179.467L182 177.533L188.8 189C188.935 189.193 189.115 189.35 189.324 189.458C189.533 189.567 189.765 189.623 190 189.623C190.235 189.623 190.467 189.567 190.676 189.458C190.885 189.35 191.065 189.193 191.2 189L195.467 181.667H205.6L190 198.333L179.333 187H172L189.067 205.267C189.316 205.511 189.651 205.648 190 205.648C190.349 205.648 190.684 205.511 190.933 205.267C194.933 201 210 185 212.667 181.933C215.333 178.867 219.333 173.933 219.333 168.467C219.346 166.363 218.94 164.277 218.139 162.331C217.337 160.386 216.157 158.619 214.667 157.133Z" fill="black"/>
<circle cx="47" cy="47" r="47" fill="#FF8A1F" fill-opacity="0.75"/>
<g clip-path="url(#clip0_63_435)">
<path d="M37.7848 76.3467C35.8393 76.3546 33.956 75.6618 32.4795 74.3949C31.003 73.1281 30.0319 71.372 29.7441 69.4479L24.5995 36.0069C24.5509 35.6905 24.5713 35.3674 24.6592 35.0597C24.7472 34.7519 24.9008 34.4669 25.1093 34.2241C25.3178 33.9813 25.5764 33.7864 25.8673 33.653C26.1582 33.5195 26.4746 33.4506 26.7946 33.4509H27.6821C27.4378 32.3882 27.4371 31.284 27.6799 30.2209C27.9227 29.1579 28.4029 28.1636 29.0844 27.3123C29.929 26.3124 31.0192 25.5493 32.248 25.0981C33.4767 24.6469 34.8016 24.523 36.0927 24.7386C36.4326 23.5469 37.0766 22.464 37.9614 21.5963C38.8463 20.7287 39.9415 20.1059 41.1396 19.7893C42.3515 19.4778 43.621 19.4668 44.8382 19.757C46.0553 20.0472 47.1833 20.63 48.1242 21.4548C49.0159 20.3735 50.1901 19.5607 51.5161 19.1068C52.8422 18.653 54.2681 18.5758 55.6354 18.884C56.8956 19.173 58.0461 19.8179 58.9503 20.742C59.8545 21.6661 60.4741 22.8305 60.7356 24.0966C62.1691 24.206 63.5402 24.7286 64.6827 25.6013C65.8252 26.4739 66.6902 27.6591 67.1729 29.0134C67.6698 30.4416 67.7397 31.9836 67.3741 33.4509H68.2113C68.5314 33.4506 68.8477 33.5195 69.1386 33.653C69.4295 33.7864 69.6881 33.9813 69.8966 34.2241C70.1052 34.4669 70.2587 34.7519 70.3467 35.0597C70.4347 35.3674 70.455 35.6905 70.4064 36.0069L65.2589 69.436C64.9747 71.3633 64.0047 73.1234 62.527 74.3929C61.0494 75.6624 59.1633 76.3561 57.2152 76.3467H37.7848ZM57.2152 71.9092C58.0999 71.9139 58.9567 71.5993 59.6284 71.0234C60.3 70.4474 60.7414 69.6485 60.8717 68.7734L65.6228 37.8884H57.1501L55.6029 71.9092H57.2152ZM51.1624 71.9092L52.7067 37.8884H42.2904L43.8376 71.9092H51.1624ZM34.1283 68.7734C34.2592 69.6483 34.7008 70.4467 35.3723 71.0226C36.0438 71.5985 36.9002 71.9132 37.7848 71.9092H39.3942L37.8499 37.8884H29.3802L34.1283 68.7734ZM62.7502 33.4509C63.1618 32.5631 63.2609 31.5621 63.0313 30.6109C62.4189 29.0134 61.2385 28.3448 58.9547 28.4661C58.6625 28.4816 58.3701 28.4392 58.0944 28.3413C57.8187 28.2434 57.5651 28.0919 57.3481 27.8956C57.1312 27.6993 56.9552 27.462 56.8303 27.1974C56.7055 26.9328 56.6342 26.6461 56.6205 26.3538C56.5288 24.3984 55.9046 23.5257 54.5645 23.1825C53.2244 22.8393 51.828 23.6144 50.127 25.99C49.9319 26.2613 49.678 26.4851 49.3844 26.6447C49.0908 26.8043 48.7649 26.8956 48.4311 26.9118C48.0973 26.928 47.7642 26.8687 47.4565 26.7383C47.1487 26.6079 46.8744 26.4097 46.6539 26.1586C45.0268 24.3007 43.6483 23.7239 42.3052 24.0877C41.0094 24.4339 40.2521 25.4693 39.974 27.6732C39.932 27.9964 39.8194 28.3064 39.6442 28.5812C39.469 28.856 39.2355 29.0888 38.9603 29.2633C38.685 29.4378 38.3747 29.5496 38.0515 29.5907C37.7282 29.6319 37.3998 29.6014 37.0896 29.5015C34.8265 28.7678 33.4479 29.043 32.445 30.1967C32.1516 30.6818 31.9765 31.2291 31.9338 31.7945C31.8912 32.3598 31.9822 32.9272 32.1995 33.4509H62.7502Z" fill="#141124"/>
</g>
<circle cx="47" cy="174" r="47" fill="#FBE945"/>
<path d="M47.9998 164.4C44.4713 164.4 41.5998 167.271 41.5998 170.8C41.5998 174.328 44.4713 177.2 47.9998 177.2C51.5283 177.2 54.3998 174.328 54.3998 170.8C54.3998 167.271 51.5284 164.4 47.9998 164.4ZM47.9998 174C46.2323 174 44.7998 172.567 44.7998 170.8C44.7998 169.032 46.2323 167.6 47.9998 167.6C49.7673 167.6 51.1998 169.032 51.1998 170.8C51.1998 172.567 49.7673 174 47.9998 174Z" fill="black"/>
<path d="M79.7705 192.012L73.8057 177.1L76.6345 168.612C76.9599 167.636 76.7966 166.563 76.195 165.729C75.5945 164.895 74.6281 164.4 73.5997 164.4H60.7997C59.7715 164.4 58.8051 164.895 58.2035 165.729C57.6019 166.563 57.4387 167.636 57.764 168.612L60.5927 177.1L56.3346 187.746L54.3037 179.623C53.9475 178.199 52.6685 177.2 51.1997 177.2H47.9997H44.7997C43.331 177.2 42.052 178.199 41.6957 179.623L41.0835 182.07L38.3486 167.027C38.0724 165.506 36.7465 164.4 35.1999 164.4H22.3999C20.8532 164.4 19.5284 165.506 19.2521 167.028L16.0521 184.628C15.8825 185.561 16.1354 186.522 16.7434 187.251C17.3514 187.979 18.2516 188.4 19.1999 188.4H21.2446L22.4105 203.054C22.5427 204.717 23.9305 206 25.5997 206H31.9997C33.6691 206 35.0579 204.717 35.1901 203.054L36.355 188.4H38.3997C38.8072 188.4 39.1955 188.288 39.5656 188.141L38.4947 192.424C38.2559 193.38 38.4702 194.394 39.0771 195.17C39.684 195.946 40.6142 196.4 41.5997 196.4V202.8C41.5997 204.567 43.0322 206 44.7997 206H51.1997C52.9672 206 54.3997 204.567 54.3997 202.8V196.4C54.9672 196.4 55.4931 196.214 55.9731 195.938C56.4606 196.228 57.0152 196.4 57.5997 196.4H60.7997V202.8C60.7997 204.567 62.2322 206 63.9997 206H70.3997C72.1672 206 73.5997 204.567 73.5997 202.8V196.4H76.7997C77.8621 196.4 78.8541 195.873 79.4494 194.994C80.0446 194.115 80.1651 192.997 79.7705 192.012ZM33.3992 185.2L31.9997 202.8H25.5997L24.2004 185.2H19.1997L22.3997 167.6H35.1997L38.3997 185.2H33.3992ZM51.1997 193.2V202.8H44.7997V193.2H41.5997L44.7997 180.4H51.1997L54.3997 193.2H51.1997ZM70.3997 193.2V202.8H63.9997V193.2H57.5997L63.9997 177.2L60.7997 167.6H73.5997L70.3997 177.2L76.7997 193.2H70.3997Z" fill="black"/>
<path d="M67.1997 142C61.9059 142 57.5997 146.306 57.5997 151.6C57.5997 156.894 61.9059 161.2 67.1997 161.2C72.4936 161.2 76.7997 156.894 76.7997 151.6C76.7997 146.306 72.4936 142 67.1997 142ZM67.1997 158C63.6649 158 60.7997 155.135 60.7997 151.6C60.7997 148.065 63.6649 145.2 67.1997 145.2C70.7346 145.2 73.5997 148.065 73.5997 151.6C73.5997 155.135 70.7347 158 67.1997 158Z" fill="black"/>
<path d="M25.6007 151.6H25.5997V151.601H25.6007V151.6Z" fill="black"/>
<path d="M28.7997 142C23.507 142 19.1997 146.306 19.1997 151.6C19.1997 156.894 23.507 161.2 28.7997 161.2C34.0936 161.2 38.3997 156.894 38.3997 151.6C38.3997 146.306 34.0936 142 28.7997 142ZM28.7997 158C25.2649 158 22.3997 155.135 22.3997 151.6C22.3997 148.065 25.2649 145.2 28.7997 145.2C32.3346 145.2 35.1997 148.065 35.1997 151.6C35.1997 155.135 32.3347 158 28.7997 158Z" fill="black"/>
<circle cx="333" cy="174" r="47" fill="#FF5701"/>
<path fill-rule="evenodd" clip-rule="evenodd" d="M336.2 174C336.2 175.766 334.766 177.2 333 177.2C331.234 177.2 329.8 175.766 329.8 174C329.8 172.234 331.234 170.8 333 170.8C334.766 170.8 336.2 172.234 336.2 174ZM347.4 172.128L354.296 159.82C357.01 163.881 358.6 168.758 358.6 174C358.6 175.91 358.373 177.766 357.976 179.555L347.4 172.128ZM345.362 196.403L344.549 184.947L356.933 183.005C354.776 188.72 350.651 193.472 345.362 196.403ZM337.746 179.533C337.918 181.958 338.088 184.345 338.264 186.822C336.27 184.931 334.946 183.678 333 181.834C331.045 183.684 329.73 184.931 327.736 186.822C327.912 184.345 328.082 181.958 328.254 179.533C323.621 178.81 323.938 178.858 320.846 178.375C323.195 176.721 324.629 175.716 327.01 174.045C324.11 168.871 324.562 169.677 323.368 167.545C325.403 168.185 324.21 167.811 330.405 169.756C330.974 168.284 332.408 164.553 333 163.017C333.592 164.553 335.026 168.284 335.595 169.756C341.79 167.811 340.597 168.185 342.632 167.545C341.438 169.677 342.302 168.132 338.99 174.045C341.371 175.716 342.805 176.721 345.154 178.375C342.696 178.759 343.938 178.563 337.746 179.533ZM333 199.6C330.184 199.6 327.483 199.126 324.949 198.281L333 190.65L341.051 198.281C338.517 199.126 335.816 199.6 333 199.6ZM320.638 196.403C315.349 193.472 311.224 188.72 309.067 183.005L321.451 184.947L320.638 196.403ZM307.4 174C307.4 168.758 308.99 163.881 311.704 159.82L318.6 172.128L308.024 179.555C307.627 177.766 307.4 175.91 307.4 174ZM331.742 148.464L326.59 161.85L313.298 157.673C317.746 152.317 324.341 148.826 331.742 148.464ZM352.702 157.673L339.41 161.85L334.258 148.464C341.659 148.826 348.254 152.317 352.702 157.673ZM333 142C315.326 142 301 156.326 301 174C301 191.674 315.326 206 333 206C350.674 206 365 191.674 365 174C365 156.326 350.674 142 333 142Z" fill="black"/>
<circle cx="190" cy="47" r="47" fill="#95F24B"/>
<path d="M211.333 55C212.806 55 214 53.8061 214 52.3333C214 50.8605 212.806 49.6667 211.333 49.6667C209.861 49.6667 208.667 50.8605 208.667 52.3333C208.667 53.8061 209.861 55 211.333 55Z" fill="#0F0F0F"/>
<path fill-rule="evenodd" clip-rule="evenodd" d="M202.733 17.6277C207.312 16.2288 212.086 19.1373 212.942 23.8475L213.83 28.7306C217.026 29.7793 219.333 32.7868 219.333 36.3333V43.7037C220.97 45.1685 222 47.2973 222 49.6667V55C222 57.3693 220.97 59.4981 219.333 60.9629V68.3333C219.333 72.7517 215.752 76.3333 211.333 76.3333H168.667C164.248 76.3333 160.667 72.7517 160.667 68.3333V36.3333C160.667 32.3682 163.551 29.0769 167.336 28.4434L202.733 17.6277ZM214 57.6667C215.473 57.6667 216.667 56.4728 216.667 55V49.6667C216.667 48.1939 215.473 47 214 47H206C204.527 47 203.333 48.1939 203.333 49.6667V55C203.333 56.4728 204.527 57.6667 206 57.6667H214ZM214 63V68.3333C214 69.8061 212.806 71 211.333 71H168.667C167.194 71 166 69.8061 166 68.3333V36.3333C166 34.8606 167.194 33.6667 168.667 33.6667H211.333C212.8 33.6667 213.99 34.8506 214 36.3147V41.6667H206C201.582 41.6667 198 45.2483 198 49.6667V55C198 59.4184 201.582 63 206 63H214ZM207.854 24.6188L208.51 28.3333H184.667L204.462 22.528C205.991 22.0694 207.577 23.0472 207.854 24.6188Z" fill="#0F0F0F"/>
<circle cx="333" cy="47" r="47" fill="#3ECFEF"/>
<path d="M333 43.7333V69.3333M333 43.7333C333 37.7594 333 34.7725 331.837 32.4908C330.815 30.4837 329.183 28.8519 327.176 27.8292C324.894 26.6667 321.907 26.6667 315.933 26.6667H313.267C311.773 26.6667 311.026 26.6667 310.456 26.9573C309.954 27.213 309.546 27.6209 309.291 28.1227C309 28.6931 309 29.4399 309 30.9333V59.7333C309 61.2269 309 61.9736 309.291 62.544C309.546 63.0459 309.954 63.4536 310.456 63.7093C311.026 64 311.773 64 313.267 64H321.124C322.565 64 323.285 64 323.982 64.1243C324.6 64.2344 325.203 64.4168 325.778 64.6683C326.427 64.9512 327.026 65.3507 328.225 66.1499L333 69.3333M333 43.7333C333 37.7594 333 34.7725 334.163 32.4908C335.185 30.4837 336.817 28.8519 338.824 27.8292C341.106 26.6667 344.093 26.6667 350.067 26.6667H352.733C354.227 26.6667 354.974 26.6667 355.544 26.9573C356.046 27.213 356.454 27.6209 356.709 28.1227C357 28.6931 357 29.4399 357 30.9333V59.7333C357 61.2269 357 61.9736 356.709 62.544C356.454 63.0459 356.046 63.4536 355.544 63.7093C354.974 64 354.227 64 352.733 64H344.875C343.435 64 342.715 64 342.018 64.1243C341.4 64.2344 340.797 64.4168 340.222 64.6683C339.573 64.9512 338.974 65.3507 337.775 66.1499L333 69.3333" stroke="black" stroke-width="5.33333" stroke-linecap="round" stroke-linejoin="round"/>
<defs>
<clipPath id="clip0_63_435">
<rect width="71" height="71" fill="white" transform="translate(12 12)"/>
</clipPath>
</defs>
</svg>
