<svg width="64" height="64" viewBox="0 0 64 64" fill="none" xmlns="http://www.w3.org/2000/svg">
<path fill-rule="evenodd" clip-rule="evenodd" d="M32 7.73456C31.6829 8.20522 31.2923 8.89904 30.7104 9.94266L30.3608 10.5697C30.3349 10.6163 30.308 10.6649 30.2803 10.7153C29.9909 11.2414 29.5976 11.9562 28.948 12.4492C28.2864 12.9514 27.4888 13.127 26.9184 13.2526C26.8643 13.2645 26.8123 13.2759 26.7624 13.2872L26.0836 13.4408C24.8431 13.7214 24.0701 13.9011 23.5506 14.0827C23.8718 14.5653 24.411 15.2026 25.2855 16.2253L25.7483 16.7665C25.7823 16.8062 25.8178 16.8473 25.8544 16.8897C26.2484 17.3458 26.7725 17.9526 27.0149 18.7316C27.2547 19.5025 27.1733 20.3002 27.1115 20.9098C27.1056 20.9668 27.1 21.0221 27.0947 21.0755L27.0248 21.7975C26.8997 23.0872 26.8229 23.9215 26.8251 24.5117C27.3376 24.33 28.0397 24.0111 29.1109 23.5178L29.7467 23.2252C29.7933 23.2037 29.8424 23.1807 29.8933 23.1569C30.4208 22.91 31.1693 22.5598 32 22.5598C32.8309 22.5598 33.5792 22.91 34.1069 23.1569C34.1579 23.1807 34.2069 23.2037 34.2536 23.2252L34.8891 23.5178C35.9605 24.0111 36.6627 24.33 37.1752 24.5117C37.1773 23.9215 37.1003 23.0872 36.9755 21.7975L36.9053 21.0755C36.9003 21.0221 36.8947 20.9668 36.8888 20.9099C36.8269 20.3002 36.7456 19.5025 36.9853 18.7316C37.2277 17.9526 37.7517 17.3458 38.1459 16.8897C38.1824 16.8473 38.2179 16.8062 38.252 16.7664L38.7147 16.2253C39.5893 15.2026 40.1283 14.5653 40.4496 14.0827C39.9301 13.9011 39.1571 13.7214 37.9165 13.4408L37.2379 13.2872C37.188 13.2759 37.136 13.2645 37.0819 13.2526C36.5115 13.127 35.7136 12.9514 35.0523 12.4492C34.4027 11.9562 34.0093 11.2414 33.7197 10.7153C33.692 10.6649 33.6653 10.6163 33.6395 10.5697L33.2899 9.94266C32.708 8.89904 32.3173 8.20522 32 7.73456ZM37.7413 24.6671C37.7443 24.6672 37.7459 24.6673 37.7459 24.6674L37.7413 24.6671ZM26.2543 24.6674C26.2543 24.6673 26.2559 24.6672 26.2589 24.6671L26.2543 24.6674ZM29.0219 5.02616C29.5971 4.27515 30.536 3.33325 32 3.33325C33.4643 3.33325 34.4032 4.27515 34.9784 5.02616C35.5323 5.74936 36.0992 6.76661 36.7155 7.87298C36.7381 7.91355 36.7608 7.95424 36.7837 7.99504L37.1331 8.62211C37.2312 8.79816 37.3072 8.93424 37.3747 9.0509C37.42 9.1293 37.4555 9.18853 37.484 9.23421C37.5288 9.24661 37.5856 9.26133 37.6584 9.27904C37.7837 9.30955 37.9296 9.34261 38.1205 9.38581L38.7992 9.53939C38.8456 9.54987 38.8917 9.56029 38.9379 9.57072C40.1296 9.84016 41.2419 10.0916 42.0819 10.4226C42.992 10.7813 44.0915 11.4277 44.5152 12.7903C44.9323 14.131 44.4189 15.2885 43.9005 16.1122C43.4133 16.8861 42.6613 17.7652 41.8443 18.7203L41.292 19.3661C41.1619 19.5181 41.0619 19.6353 40.9768 19.738C40.9069 19.8223 40.8587 19.8831 40.8243 19.929C40.8288 20.0775 40.8477 20.2866 40.8867 20.6897L40.9699 21.5475C41.0939 22.8255 41.2072 23.9919 41.1661 24.9106C41.1237 25.8651 40.8984 27.1426 39.764 28.0039C38.5965 28.8898 37.2925 28.717 36.3675 28.4519C35.5019 28.2039 34.4616 27.725 33.3464 27.2111C33.3032 27.1911 33.2597 27.1711 33.2163 27.1511L32.5808 26.8586C32.4019 26.7762 32.2651 26.7133 32.1464 26.6609C32.0877 26.6351 32.0397 26.6146 32 26.5983C31.9603 26.6146 31.9123 26.6351 31.8539 26.6609C31.7349 26.7133 31.5981 26.7762 31.4195 26.8586L30.784 27.1511C30.7405 27.1711 30.6971 27.1911 30.6539 27.2111C29.5384 27.725 28.4984 28.2039 27.6325 28.4519C26.7077 28.717 25.4035 28.8898 24.2363 28.0039C23.1017 27.1426 22.8765 25.8651 22.834 24.9106C22.7931 23.9919 22.9063 22.8255 23.0303 21.5476C23.0346 21.5024 23.039 21.4571 23.0434 21.4117L23.1134 20.6897C23.1525 20.2866 23.1715 20.0775 23.176 19.929C23.1415 19.8831 23.0933 19.8223 23.0235 19.7381C22.9384 19.6353 22.8382 19.5181 22.7083 19.3661L22.2455 18.825C22.2156 18.79 22.1857 18.7551 22.1559 18.7202C21.339 17.7652 20.5869 16.886 20.0998 16.1122C19.5813 15.2885 19.0679 14.131 19.4849 12.7903C19.9086 11.4277 21.0082 10.7813 21.9183 10.4226C22.7583 10.0916 23.8706 9.84016 25.0624 9.57072C25.1084 9.56032 25.1546 9.54987 25.2009 9.53939L25.8797 9.38581C26.0706 9.34261 26.2164 9.30957 26.3418 9.27904C26.4146 9.2613 26.4713 9.24661 26.5161 9.23424C26.5447 9.18853 26.5802 9.1293 26.6255 9.0509C26.6931 8.93424 26.7688 8.79816 26.8669 8.62211L27.2165 7.99504C27.2392 7.95424 27.2619 7.91355 27.2845 7.87298C27.9011 6.76661 28.468 5.74936 29.0219 5.02616ZM10.6668 21.8709C10.8059 22.1278 11.102 22.652 11.5882 23.0211C12.1106 23.4177 12.7377 23.5497 12.9982 23.6046C13.0243 23.6101 13.0467 23.6148 13.0649 23.6189L13.1198 23.6313L13.0327 23.7332C13.0193 23.7489 13.0031 23.7673 12.9847 23.7883C12.8018 23.9967 12.3931 24.4624 12.2045 25.0688C12.0185 25.6669 12.0855 26.2795 12.1162 26.5593C12.1193 26.5879 12.122 26.6129 12.1241 26.6342L12.127 26.6639C11.8755 26.5435 11.3054 26.2798 10.6668 26.2798C10.0282 26.2798 9.45802 26.5435 9.20656 26.6639L9.20944 26.6342C9.21149 26.6129 9.21424 26.5879 9.21736 26.5593C9.24797 26.2795 9.31501 25.6669 9.12901 25.0688C8.94042 24.4624 8.53168 23.9967 8.34882 23.7883C8.33037 23.7673 8.31424 23.7489 8.30085 23.7332L8.21368 23.6313L8.26858 23.6189C8.28685 23.6148 8.30922 23.6101 8.33528 23.6046C8.59586 23.5497 9.22293 23.4177 9.74536 23.0211C10.2315 22.652 10.5277 22.1278 10.6668 21.8709ZM9.08277 28.353C9.08333 28.3567 9.08352 28.3589 9.08349 28.3589L9.08277 28.353ZM12.2501 28.3589C12.25 28.3589 12.2502 28.3567 12.2507 28.353L12.2501 28.3589ZM8.38368 17.905C8.7268 17.457 9.45514 16.6666 10.6668 16.6666C11.8784 16.6666 12.6067 17.457 12.9498 17.905C13.2727 18.3267 13.5891 18.8949 13.8802 19.4177C13.8976 19.4488 13.9148 19.4798 13.932 19.5106L14.0617 19.7433L14.287 19.7943C14.3214 19.8021 14.356 19.8099 14.3908 19.8178C14.9532 19.9447 15.5799 20.0861 16.0743 20.2809C16.6369 20.5027 17.5336 20.9865 17.8793 22.0982C18.2182 23.188 17.7777 24.0893 17.4632 24.5888C17.1792 25.04 16.7586 25.5314 16.3723 25.9827C16.3494 26.0094 16.3266 26.036 16.3041 26.0624L16.1095 26.2899L16.1404 26.6094C16.1438 26.6439 16.1472 26.6789 16.1506 26.7138C16.2094 27.3181 16.2725 27.9671 16.2488 28.4997C16.2235 29.0666 16.0836 30.0922 15.1533 30.7983C14.1903 31.5293 13.1419 31.3498 12.575 31.1874C12.0656 31.0413 11.4801 30.7714 10.9541 30.5287C10.9214 30.5138 10.8889 30.4989 10.8566 30.4839L10.6667 30.3965L10.4769 30.4839C10.4447 30.4989 10.4121 30.5138 10.3794 30.5287C9.85338 30.7714 9.26792 31.0413 8.75848 31.1874C8.19162 31.3498 7.14317 31.5293 6.18021 30.7983C5.24992 30.0922 5.10997 29.0666 5.08472 28.4997C5.06098 27.9671 5.12413 27.3181 5.18296 26.7138C5.18634 26.6789 5.18973 26.644 5.19309 26.6094L5.22405 26.2899L5.02946 26.0624C5.00688 26.036 4.98413 26.0094 4.96125 25.9827C4.57496 25.5314 4.15434 25.04 3.87032 24.5888C3.55586 24.0893 3.11536 23.188 3.45426 22.0982C3.79994 20.9865 4.69658 20.5027 5.25925 20.2809C5.75357 20.0861 6.38032 19.9447 6.94269 19.8178C6.97754 19.8099 7.01216 19.8021 7.04648 19.7943L7.27178 19.7433L7.40154 19.5106C7.41869 19.4798 7.43594 19.4488 7.45328 19.4177C7.7444 18.8949 8.0608 18.3267 8.38368 17.905ZM53.3333 21.8709C53.4725 22.1277 53.7688 22.652 54.2549 23.0211C54.7773 23.4177 55.4043 23.5497 55.6648 23.6046C55.6909 23.6101 55.7133 23.6148 55.7315 23.6189L55.7864 23.6313L55.6995 23.7332C55.6859 23.7489 55.6699 23.7673 55.6515 23.7883C55.4685 23.9967 55.0597 24.4624 54.8712 25.0688C54.6851 25.6669 54.7523 26.2794 54.7829 26.5593C54.7859 26.5879 54.7888 26.6129 54.7907 26.6342L54.7936 26.6639C54.5421 26.5435 53.972 26.2798 53.3333 26.2798C52.6949 26.2798 52.1248 26.5435 51.8733 26.6639L51.876 26.6342C51.8781 26.6129 51.8808 26.5879 51.884 26.5593C51.9147 26.2795 51.9816 25.6669 51.7957 25.0688C51.6072 24.4624 51.1984 23.9967 51.0155 23.7883C50.9971 23.7673 50.9808 23.7489 50.9675 23.7333L50.8803 23.6313L50.9352 23.6189C50.9536 23.6148 50.976 23.6101 51.0019 23.6046C51.2624 23.5497 51.8896 23.4177 52.412 23.0211C52.8981 22.652 53.1944 22.1277 53.3333 21.8709ZM51.7493 28.353C51.7501 28.3573 51.7501 28.3591 51.7501 28.3589L51.7493 28.353ZM51.0504 17.905C51.3933 17.457 52.1219 16.6666 53.3333 16.6666C54.5451 16.6666 55.2733 17.457 55.6165 17.905C55.9395 18.3267 56.2557 18.8949 56.5469 19.4177C56.5643 19.4488 56.5816 19.4798 56.5987 19.5106L56.7283 19.7433L56.9536 19.7943C56.988 19.8021 57.0227 19.8099 57.0576 19.8178C57.62 19.9447 58.2467 20.0861 58.7411 20.2809C59.3035 20.5027 60.2003 20.9865 60.5459 22.0982C60.8848 23.188 60.4443 24.0893 60.1299 24.5888C59.8459 25.04 59.4251 25.5314 59.0389 25.9827C59.016 26.0094 58.9933 26.036 58.9707 26.0624L58.776 26.2899L58.8072 26.6094C58.8104 26.6439 58.8139 26.6789 58.8173 26.7135C58.876 27.3181 58.9392 27.9671 58.9155 28.4997C58.8901 29.0666 58.7504 30.0922 57.82 30.7983C56.8571 31.5293 55.8085 31.3498 55.2416 31.1874C54.7323 31.0413 54.1469 30.7714 53.6208 30.529C53.588 30.5138 53.5555 30.4989 53.5232 30.4839L53.3333 30.3965L53.1435 30.4839C53.1112 30.4989 53.0789 30.5138 53.0461 30.5287C52.52 30.7714 51.9347 31.0413 51.4251 31.1874C50.8584 31.3498 49.8099 31.5293 48.8469 30.7983C47.9165 30.0922 47.7765 29.0666 47.7515 28.4997C47.7277 27.9671 47.7907 27.3181 47.8496 26.7138C47.8531 26.6789 47.8565 26.644 47.8597 26.6094L47.8907 26.2899L47.6963 26.0624C47.6736 26.036 47.6507 26.0094 47.628 25.9826C47.2416 25.5314 46.8211 25.04 46.5371 24.5888C46.2227 24.0893 45.7821 23.188 46.1208 22.0982C46.4667 20.9865 47.3632 20.5027 47.9259 20.2809C48.4203 20.0861 49.0469 19.9447 49.6093 19.8178C49.6443 19.8099 49.6789 19.8021 49.7131 19.7943L49.9384 19.7433L50.0683 19.5106C50.0853 19.4798 50.1027 19.4488 50.12 19.4177C50.4109 18.8949 50.7275 18.3267 51.0504 17.905ZM54.9168 28.3589C54.9168 28.3589 54.9168 28.3567 54.9173 28.353L54.9168 28.3589ZM23.1572 38.5285C28.1328 37.5644 33.4589 37.7807 37.7688 40.3514C38.3741 40.7124 38.9416 41.1623 39.4368 41.7183C40.4389 42.8442 40.9565 44.2434 40.9811 45.6463C41.4912 45.3172 42.0021 44.9519 42.5211 44.5599L47.3403 40.9194C49.7525 39.0972 53.2581 39.097 55.6707 40.9186C57.8997 42.6018 58.7885 45.6226 57.1928 48.1804C56.0587 49.9986 54.3504 52.513 52.6123 54.1231C50.8552 55.7506 48.3544 57.1188 46.4627 58.0319C44.1653 59.1407 41.6843 59.7538 39.2715 60.1442C34.3403 60.9423 29.2093 60.8202 24.3334 59.8159C21.8417 59.3023 19.2522 59.0356 16.6933 59.0356H10.6668C9.56218 59.0356 8.66677 58.1402 8.66677 57.0356C8.66677 55.9311 9.56218 55.0356 10.6668 55.0356H16.6933C19.5255 55.0356 22.3854 55.3306 25.1405 55.898C29.5459 56.8058 34.1869 56.9151 38.6323 56.1957C40.8429 55.8378 42.9069 55.3066 44.724 54.4295C46.5464 53.5498 48.5955 52.3914 49.8941 51.1884C51.2075 49.9719 52.6776 47.861 53.7989 46.0634C54.1376 45.5207 54.0907 44.7378 53.2603 44.1108C52.2744 43.3663 50.7371 43.3666 49.7512 44.1111L44.932 47.7517C43.0083 49.2047 40.6403 50.7596 37.7032 51.2282C37.4069 51.2754 37.0984 51.3186 36.7781 51.3567C36.6253 51.3844 36.4664 51.4026 36.3021 51.4087C34.8027 51.5578 33.0661 51.5924 31.1501 51.4114C30.0504 51.3077 29.2432 50.3319 29.3469 49.2322C29.4509 48.1324 30.4264 47.3252 31.5261 47.4292C33.1992 47.5871 34.7005 47.5522 35.9741 47.4215C35.9997 47.4188 36.0256 47.4162 36.0512 47.4135C36.1045 47.3826 36.1856 47.3263 36.2923 47.2332C37.1443 46.4895 37.2203 45.2444 36.4491 44.378C36.2536 44.1586 36.0128 43.9615 35.7197 43.7866C32.5701 41.9079 28.3635 41.5941 23.918 42.4554C19.4979 43.3116 15.1065 45.2845 11.8237 47.6124C10.9227 48.2514 9.67432 48.0388 9.03536 47.1381C8.3964 46.237 8.60882 44.9887 9.50981 44.3495C13.2388 41.7052 18.1563 39.4972 23.1572 38.5285Z" fill="black"/>
</svg>
