<svg width="64" height="64" viewBox="0 0 64 64" fill="none" xmlns="http://www.w3.org/2000/svg">
<path d="M5.33337 8L6.0398 8.23547C9.55991 9.40885 11.32 9.99552 12.3267 11.3923C13.3334 12.789 13.3334 14.6442 13.3334 18.3548V25.3333C13.3334 32.8757 13.3334 36.6469 15.6765 38.9901C18.0197 41.3333 21.7909 41.3333 29.3334 41.3333H50.6667" stroke="black" stroke-width="4" stroke-linecap="round"/>
<path d="M20 48C22.2091 48 24 49.7909 24 52C24 54.2091 22.2091 56 20 56C17.7909 56 16 54.2091 16 52C16 49.7909 17.7909 48 20 48Z" stroke="black" stroke-width="4"/>
<path d="M44 48.0003C46.2091 48.0003 48 49.7909 48 52.0003C48 54.2093 46.2091 56.0003 44 56.0003C41.7909 56.0003 40 54.2093 40 52.0003C40 49.7909 41.7909 48.0003 44 48.0003Z" stroke="black" stroke-width="4"/>
<path d="M13.3334 16H43.8678C49.3478 16 52.0875 16 53.2734 17.798C54.459 19.5961 53.3795 22.1145 51.2208 27.1515L50.0779 29.8181C49.0702 32.1696 48.5662 33.3453 47.5643 34.0061C46.5624 34.6667 45.2832 34.6667 42.7248 34.6667H13.3334" stroke="black" stroke-width="4"/>
</svg>
