<svg width="64" height="64" viewBox="0 0 64 64" fill="none" xmlns="http://www.w3.org/2000/svg">
<path d="M58.6667 31.9999C58.6667 17.3066 46.6933 5.33325 32 5.33325C17.3067 5.33325 5.33334 17.3066 5.33334 31.9999C5.33334 39.7333 8.66668 46.6933 13.9467 51.5733C13.9467 51.5999 13.9467 51.5999 13.92 51.6266C14.1867 51.8933 14.5067 52.1066 14.7733 52.3466C14.9333 52.4799 15.0667 52.6133 15.2267 52.7199C15.7067 53.1199 16.24 53.4933 16.7467 53.8666C16.9333 53.9999 17.0933 54.1066 17.28 54.2399C17.7867 54.5866 18.32 54.9066 18.88 55.1999C19.0667 55.3066 19.28 55.4399 19.4667 55.5466C20 55.8399 20.56 56.1066 21.1467 56.3466C21.36 56.4533 21.5733 56.5599 21.7867 56.6399C22.3733 56.8799 22.96 57.0933 23.5467 57.2799C23.76 57.3599 23.9733 57.4399 24.1867 57.4933C24.8267 57.6799 25.4667 57.8399 26.1067 57.9999C26.2933 58.0533 26.48 58.1066 26.6933 58.1333C27.44 58.2933 28.1867 58.3999 28.96 58.4799C29.0667 58.4799 29.1733 58.5066 29.28 58.5333C30.1867 58.6133 31.0933 58.6666 32 58.6666C32.9067 58.6666 33.8133 58.6133 34.6933 58.5333C34.8 58.5333 34.9067 58.5066 35.0133 58.4799C35.7867 58.3999 36.5333 58.2933 37.28 58.1333C37.4667 58.1066 37.6533 58.0266 37.8667 57.9999C38.5067 57.8399 39.1733 57.7066 39.7867 57.4933C40 57.4133 40.2133 57.3333 40.4267 57.2799C41.0133 57.0666 41.6267 56.8799 42.1867 56.6399C42.4 56.5599 42.6133 56.4533 42.8267 56.3466C43.3867 56.1066 43.9467 55.8399 44.5067 55.5466C44.72 55.4399 44.9067 55.3066 45.0933 55.1999C45.6267 54.8799 46.16 54.5866 46.6933 54.2399C46.88 54.1333 47.04 53.9999 47.2267 53.8666C47.76 53.4933 48.2667 53.1199 48.7467 52.7199C48.9067 52.5866 49.04 52.4533 49.2 52.3466C49.4933 52.1066 49.7867 51.8666 50.0533 51.6266C50.0533 51.5999 50.0533 51.5999 50.0267 51.5733C55.3333 46.6933 58.6667 39.7333 58.6667 31.9999ZM45.1733 45.2533C37.9467 40.3999 26.1067 40.3999 18.8267 45.2533C17.6533 46.0266 16.6933 46.9333 15.8933 47.9199C11.84 43.8133 9.33334 38.1866 9.33334 31.9999C9.33334 19.4933 19.4933 9.33325 32 9.33325C44.5067 9.33325 54.6667 19.4933 54.6667 31.9999C54.6667 38.1866 52.16 43.8133 48.1067 47.9199C47.3333 46.9333 46.3467 46.0266 45.1733 45.2533Z" fill="#292D32"/>
<path d="M32 18.479C26.48 18.479 22 22.959 22 28.479C22 33.8924 26.24 38.2924 31.8667 38.4524C31.9467 38.4524 32.0533 38.4524 32.1067 38.4524C32.16 38.4524 32.24 38.4524 32.2933 38.4524C32.32 38.4524 32.3467 38.4524 32.3467 38.4524C37.7333 38.2657 41.9733 33.8924 42 28.479C42 22.959 37.52 18.479 32 18.479Z" fill="#292D32"/>
</svg>
