<svg width="64" height="64" viewBox="0 0 64 64" fill="none" xmlns="http://www.w3.org/2000/svg">
<path d="M58.6667 32C58.6667 17.3067 46.6933 5.33334 32 5.33334C17.3067 5.33334 5.33334 17.3067 5.33334 32C5.33334 39.7333 8.66668 46.6933 13.9467 51.5733C13.9467 51.6 13.9467 51.6 13.92 51.6267C14.1867 51.8933 14.5067 52.1067 14.7733 52.3467C14.9333 52.48 15.0667 52.6133 15.2267 52.72C15.7067 53.12 16.24 53.4933 16.7467 53.8667C16.9333 54 17.0933 54.1067 17.28 54.24C17.7867 54.5867 18.32 54.9067 18.88 55.2C19.0667 55.3067 19.28 55.44 19.4667 55.5467C20 55.84 20.56 56.1067 21.1467 56.3467C21.36 56.4533 21.5733 56.56 21.7867 56.64C22.3733 56.88 22.96 57.0933 23.5467 57.28C23.76 57.36 23.9733 57.44 24.1867 57.4933C24.8267 57.68 25.4667 57.84 26.1067 58C26.2933 58.0533 26.48 58.1067 26.6933 58.1333C27.44 58.2933 28.1867 58.4 28.96 58.48C29.0667 58.48 29.1733 58.5067 29.28 58.5333C30.1867 58.6133 31.0933 58.6667 32 58.6667C32.9067 58.6667 33.8133 58.6133 34.6933 58.5333C34.8 58.5333 34.9067 58.5067 35.0133 58.48C35.7867 58.4 36.5333 58.2933 37.28 58.1333C37.4667 58.1067 37.6533 58.0267 37.8667 58C38.5067 57.84 39.1733 57.7067 39.7867 57.4933C40 57.4133 40.2133 57.3333 40.4267 57.28C41.0133 57.0667 41.6267 56.88 42.1867 56.64C42.4 56.56 42.6133 56.4533 42.8267 56.3467C43.3867 56.1067 43.9467 55.84 44.5067 55.5467C44.72 55.44 44.9067 55.3067 45.0933 55.2C45.6267 54.88 46.16 54.5867 46.6933 54.24C46.88 54.1333 47.04 54 47.2267 53.8667C47.76 53.4933 48.2667 53.12 48.7467 52.72C48.9067 52.5867 49.04 52.4533 49.2 52.3467C49.4933 52.1067 49.7867 51.8667 50.0533 51.6267C50.0533 51.6 50.0533 51.6 50.0267 51.5733C55.3333 46.6933 58.6667 39.7333 58.6667 32ZM45.1733 45.2533C37.9467 40.4 26.1067 40.4 18.8267 45.2533C17.6533 46.0267 16.6933 46.9333 15.8933 47.92C11.84 43.8133 9.33334 38.1867 9.33334 32C9.33334 19.4933 19.4933 9.33334 32 9.33334C44.5067 9.33334 54.6667 19.4933 54.6667 32C54.6667 38.1867 52.16 43.8133 48.1067 47.92C47.3333 46.9333 46.3467 46.0267 45.1733 45.2533Z" fill="#292D32"/>
<path d="M32 18.4792C26.48 18.4792 22 22.9592 22 28.4792C22 33.8925 26.24 38.2925 31.8667 38.4525C31.9467 38.4525 32.0533 38.4525 32.1067 38.4525C32.16 38.4525 32.24 38.4525 32.2933 38.4525C32.32 38.4525 32.3467 38.4525 32.3467 38.4525C37.7333 38.2659 41.9733 33.8925 42 28.4792C42 22.9592 37.52 18.4792 32 18.4792Z" fill="#292D32"/>
</svg>
