<svg width="64" height="64" viewBox="0 0 64 64" fill="none" xmlns="http://www.w3.org/2000/svg">
<path d="M16 44H8V56H16V44ZM36 28H28V56H36V28ZM56 8V56H48V8H56ZM48 4C46.9391 4 45.9217 4.42143 45.1716 5.17157C44.4214 5.92172 44 6.93913 44 8V56C44 57.0609 44.4214 58.0783 45.1716 58.8284C45.9217 59.5786 46.9391 60 48 60H56C57.0609 60 58.0783 59.5786 58.8284 58.8284C59.5786 58.0783 60 57.0609 60 56V8C60 6.93913 59.5786 5.92172 58.8284 5.17157C58.0783 4.42143 57.0609 4 56 4H48ZM24 28C24 26.9391 24.4214 25.9217 25.1716 25.1716C25.9217 24.4214 26.9391 24 28 24H36C37.0609 24 38.0783 24.4214 38.8284 25.1716C39.5786 25.9217 40 26.9391 40 28V56C40 57.0609 39.5786 58.0783 38.8284 58.8284C38.0783 59.5786 37.0609 60 36 60H28C26.9391 60 25.9217 59.5786 25.1716 58.8284C24.4214 58.0783 24 57.0609 24 56V28ZM4 44C4 42.9391 4.42143 41.9217 5.17157 41.1716C5.92172 40.4214 6.93913 40 8 40H16C17.0609 40 18.0783 40.4214 18.8284 41.1716C19.5786 41.9217 20 42.9391 20 44V56C20 57.0609 19.5786 58.0783 18.8284 58.8284C18.0783 59.5786 17.0609 60 16 60H8C6.93913 60 5.92172 59.5786 5.17157 58.8284C4.42143 58.0783 4 57.0609 4 56V44Z" fill="black"/>
</svg>
