<svg width="64" height="64" viewBox="0 0 64 64" fill="none" xmlns="http://www.w3.org/2000/svg">
<path fill-rule="evenodd" clip-rule="evenodd" d="M32 7.73468C31.6829 8.20535 31.2923 8.89916 30.7104 9.94279L30.3608 10.5698C30.3349 10.6164 30.308 10.6651 30.2803 10.7154C29.9909 11.2416 29.5976 11.9563 28.948 12.4493C28.2864 12.9515 27.4888 13.1271 26.9184 13.2527C26.8643 13.2646 26.8123 13.2761 26.7624 13.2873L26.0836 13.4409C24.8431 13.7216 24.0701 13.9012 23.5506 14.0828C23.8718 14.5654 24.411 15.2028 25.2855 16.2255L25.7483 16.7666C25.7823 16.8064 25.8178 16.8475 25.8544 16.8898C26.2484 17.3459 26.7725 17.9527 27.0149 18.7317C27.2547 19.5027 27.1733 20.3003 27.1115 20.91C27.1056 20.9669 27.1 21.0222 27.0947 21.0757L27.0248 21.7976C26.8997 23.0873 26.8229 23.9216 26.8251 24.5118C27.3376 24.3301 28.0397 24.0112 29.1109 23.5179L29.7467 23.2253C29.7933 23.2038 29.8424 23.1809 29.8933 23.157C30.4208 22.9101 31.1693 22.5599 32 22.5599C32.8309 22.5599 33.5792 22.9101 34.1069 23.157C34.1579 23.1809 34.2069 23.2038 34.2536 23.2253L34.8891 23.5179C35.9605 24.0113 36.6627 24.3302 37.1752 24.5118C37.1773 23.9216 37.1003 23.0873 36.9755 21.7976L36.9053 21.0757C36.9003 21.0222 36.8947 20.9669 36.8888 20.91C36.8269 20.3003 36.7456 19.5027 36.9853 18.7317C37.2277 17.9527 37.7517 17.3459 38.1459 16.8898C38.1824 16.8475 38.2179 16.8064 38.252 16.7665L38.7147 16.2255C39.5893 15.2028 40.1283 14.5654 40.4496 14.0828C39.9301 13.9012 39.1571 13.7216 37.9165 13.4409L37.2379 13.2873C37.188 13.2761 37.136 13.2646 37.0819 13.2527C36.5115 13.1271 35.7136 12.9515 35.0523 12.4493C34.4027 11.9563 34.0093 11.2415 33.7197 10.7154C33.692 10.665 33.6653 10.6164 33.6395 10.5698L33.2899 9.94279C32.708 8.89916 32.3173 8.20535 32 7.73468ZM37.7413 24.6672C37.7443 24.6673 37.7459 24.6675 37.7459 24.6675L37.7413 24.6672ZM26.2543 24.6675C26.2543 24.6675 26.2559 24.6673 26.2589 24.6672L26.2543 24.6675ZM29.0219 5.02628C29.5971 4.27527 30.536 3.33337 32 3.33337C33.4643 3.33337 34.4032 4.27527 34.9784 5.02628C35.5323 5.74948 36.0992 6.76673 36.7155 7.87311C36.7381 7.91367 36.7608 7.95436 36.7837 7.99516L37.1331 8.62223C37.2312 8.79828 37.3072 8.93436 37.3747 9.05103C37.42 9.12943 37.4555 9.18865 37.484 9.23433C37.5288 9.24673 37.5856 9.26145 37.6584 9.27916C37.7837 9.30967 37.9296 9.34273 38.1205 9.38593L38.7992 9.53951C38.8456 9.54999 38.8917 9.56041 38.9379 9.57084C40.1296 9.84028 41.2419 10.0917 42.0819 10.4228C42.992 10.7814 44.0915 11.4279 44.5152 12.7904C44.9323 14.1311 44.4189 15.2886 43.9005 16.1123C43.4133 16.8862 42.6613 17.7653 41.8443 18.7204L41.292 19.3663C41.1619 19.5183 41.0619 19.6355 40.9768 19.7381C40.9069 19.8224 40.8587 19.8832 40.8243 19.9291C40.8288 20.0776 40.8477 20.2868 40.8867 20.6899L40.9699 21.5476C41.0939 22.8256 41.2072 23.992 41.1661 24.9107C41.1237 25.8652 40.8984 27.1427 39.764 28.004C38.5965 28.8899 37.2925 28.7171 36.3675 28.452C35.5019 28.204 34.4616 27.7251 33.3464 27.2112C33.3032 27.1912 33.2597 27.1712 33.2163 27.1512L32.5808 26.8587C32.4019 26.7763 32.2651 26.7134 32.1464 26.6611C32.0877 26.6352 32.0397 26.6148 32 26.5984C31.9603 26.6148 31.9123 26.6352 31.8539 26.6611C31.7349 26.7134 31.5981 26.7763 31.4195 26.8587L30.784 27.1512C30.7405 27.1712 30.6971 27.1912 30.6539 27.2112C29.5384 27.7251 28.4984 28.204 27.6325 28.452C26.7077 28.7171 25.4035 28.8899 24.2363 28.004C23.1017 27.1427 22.8765 25.8652 22.834 24.9107C22.7931 23.992 22.9063 22.8256 23.0303 21.5477C23.0346 21.5025 23.039 21.4573 23.0434 21.4118L23.1134 20.6899C23.1525 20.2868 23.1715 20.0776 23.176 19.9291C23.1415 19.8832 23.0933 19.8224 23.0235 19.7382C22.9384 19.6355 22.8382 19.5183 22.7083 19.3663L22.2455 18.8251C22.2156 18.7901 22.1857 18.7552 22.1559 18.7203C21.339 17.7653 20.5869 16.8861 20.0998 16.1123C19.5813 15.2886 19.0679 14.1311 19.4849 12.7904C19.9086 11.4279 21.0082 10.7814 21.9183 10.4228C22.7583 10.0917 23.8706 9.84028 25.0624 9.57084C25.1084 9.56044 25.1546 9.54999 25.2009 9.53951L25.8797 9.38593C26.0706 9.34273 26.2164 9.30969 26.3418 9.27916C26.4146 9.26143 26.4713 9.24673 26.5161 9.23436C26.5447 9.18865 26.5802 9.12943 26.6255 9.05103C26.6931 8.93436 26.7688 8.79828 26.8669 8.62223L27.2165 7.99516C27.2392 7.95436 27.2619 7.91367 27.2845 7.87311C27.9011 6.76673 28.468 5.74948 29.0219 5.02628ZM10.6668 21.871C10.8059 22.1279 11.102 22.6521 11.5882 23.0212C12.1106 23.4178 12.7377 23.5498 12.9982 23.6047C13.0243 23.6102 13.0467 23.6149 13.0649 23.619L13.1198 23.6315L13.0327 23.7334C13.0193 23.749 13.0031 23.7674 12.9847 23.7884C12.8018 23.9968 12.3931 24.4625 12.2045 25.0689C12.0185 25.6671 12.0855 26.2796 12.1162 26.5595C12.1193 26.588 12.122 26.6131 12.1241 26.6343L12.127 26.664C11.8755 26.5436 11.3054 26.28 10.6668 26.28C10.0282 26.28 9.45802 26.5436 9.20656 26.664L9.20944 26.6343C9.21149 26.6131 9.21424 26.588 9.21736 26.5595C9.24797 26.2796 9.31501 25.6671 9.12901 25.0689C8.94042 24.4625 8.53168 23.9968 8.34882 23.7884C8.33037 23.7674 8.31424 23.749 8.30085 23.7334L8.21368 23.6315L8.26858 23.619C8.28685 23.6149 8.30922 23.6102 8.33528 23.6047C8.59586 23.5498 9.22293 23.4178 9.74536 23.0212C10.2315 22.6521 10.5277 22.1279 10.6668 21.871ZM9.08277 28.3531C9.08333 28.3568 9.08352 28.359 9.08349 28.359L9.08277 28.3531ZM12.2501 28.359C12.25 28.359 12.2502 28.3568 12.2507 28.3531L12.2501 28.359ZM8.38368 17.9052C8.7268 17.4571 9.45514 16.6667 10.6668 16.6667C11.8784 16.6667 12.6067 17.4571 12.9498 17.9052C13.2727 18.3268 13.5891 18.895 13.8802 19.4178C13.8976 19.4489 13.9148 19.4799 13.932 19.5107L14.0617 19.7435L14.287 19.7944C14.3214 19.8022 14.356 19.81 14.3908 19.8179C14.9532 19.9448 15.5799 20.0862 16.0743 20.2811C16.6369 20.5028 17.5336 20.9867 17.8793 22.0983C18.2182 23.1881 17.7777 24.0894 17.4632 24.5889C17.1792 25.0401 16.7586 25.5315 16.3723 25.9828C16.3494 26.0095 16.3266 26.0361 16.3041 26.0625L16.1095 26.29L16.1404 26.6095C16.1438 26.6441 16.1472 26.679 16.1506 26.7139C16.2094 27.3182 16.2725 27.9672 16.2488 28.4998C16.2235 29.0667 16.0836 30.0923 15.1533 30.7984C14.1903 31.5294 13.1419 31.3499 12.575 31.1875C12.0656 31.0414 11.4801 30.7715 10.9541 30.5288C10.9214 30.5139 10.8889 30.499 10.8566 30.484L10.6667 30.3966L10.4769 30.484C10.4447 30.499 10.4121 30.5139 10.3794 30.5288C9.85338 30.7715 9.26792 31.0414 8.75848 31.1875C8.19162 31.3499 7.14317 31.5294 6.18021 30.7984C5.24992 30.0923 5.10997 29.0667 5.08472 28.4998C5.06098 27.9672 5.12413 27.3182 5.18296 26.7139C5.18634 26.679 5.18973 26.6441 5.19309 26.6095L5.22405 26.29L5.02946 26.0625C5.00688 26.0361 4.98413 26.0095 4.96125 25.9828C4.57496 25.5315 4.15434 25.0401 3.87032 24.5889C3.55586 24.0894 3.11536 23.1881 3.45426 22.0983C3.79994 20.9867 4.69658 20.5028 5.25925 20.2811C5.75357 20.0862 6.38032 19.9448 6.94269 19.8179C6.97754 19.81 7.01216 19.8022 7.04648 19.7944L7.27178 19.7435L7.40154 19.5107C7.41869 19.4799 7.43594 19.4489 7.45328 19.4178C7.7444 18.895 8.0608 18.3268 8.38368 17.9052ZM53.3333 21.871C53.4725 22.1279 53.7688 22.6521 54.2549 23.0212C54.7773 23.4178 55.4043 23.5498 55.6648 23.6047C55.6909 23.6102 55.7133 23.6149 55.7315 23.619L55.7864 23.6315L55.6995 23.7334C55.6859 23.749 55.6699 23.7674 55.6515 23.7884C55.4685 23.9968 55.0597 24.4625 54.8712 25.0689C54.6851 25.6671 54.7523 26.2796 54.7829 26.5595C54.7859 26.588 54.7888 26.6131 54.7907 26.6343L54.7936 26.664C54.5421 26.5436 53.972 26.28 53.3333 26.28C52.6949 26.28 52.1248 26.5436 51.8733 26.664L51.876 26.6343C51.8781 26.6131 51.8808 26.588 51.884 26.5595C51.9147 26.2796 51.9816 25.6671 51.7957 25.0689C51.6072 24.4625 51.1984 23.9968 51.0155 23.7884C50.9971 23.7674 50.9808 23.749 50.9675 23.7334L50.8803 23.6315L50.9352 23.619C50.9536 23.6149 50.976 23.6102 51.0019 23.6047C51.2624 23.5498 51.8896 23.4178 52.412 23.0212C52.8981 22.6521 53.1944 22.1279 53.3333 21.871ZM51.7493 28.3531C51.7501 28.3574 51.7501 28.3592 51.7501 28.359L51.7493 28.3531ZM51.0504 17.9052C51.3933 17.4571 52.1219 16.6667 53.3333 16.6667C54.5451 16.6667 55.2733 17.4571 55.6165 17.9052C55.9395 18.3268 56.2557 18.895 56.5469 19.4178C56.5643 19.4489 56.5816 19.4799 56.5987 19.5107L56.7283 19.7435L56.9536 19.7944C56.988 19.8022 57.0227 19.81 57.0576 19.8179C57.62 19.9448 58.2467 20.0863 58.7411 20.2811C59.3035 20.5028 60.2003 20.9867 60.5459 22.0983C60.8848 23.1881 60.4443 24.0894 60.1299 24.5889C59.8459 25.0401 59.4251 25.5315 59.0389 25.9828C59.016 26.0095 58.9933 26.0361 58.9707 26.0625L58.776 26.29L58.8072 26.6095C58.8104 26.6441 58.8139 26.679 58.8173 26.7136C58.876 27.3182 58.9392 27.9672 58.9155 28.4998C58.8901 29.0667 58.7504 30.0923 57.82 30.7984C56.8571 31.5294 55.8085 31.3499 55.2416 31.1875C54.7323 31.0414 54.1469 30.7715 53.6208 30.5291C53.588 30.5139 53.5555 30.499 53.5232 30.484L53.3333 30.3966L53.1435 30.484C53.1112 30.499 53.0789 30.5139 53.0461 30.5288C52.52 30.7715 51.9347 31.0414 51.4251 31.1875C50.8584 31.3499 49.8099 31.5294 48.8469 30.7984C47.9165 30.0923 47.7765 29.0667 47.7515 28.4998C47.7277 27.9672 47.7907 27.3182 47.8496 26.7139C47.8531 26.679 47.8565 26.6441 47.8597 26.6095L47.8907 26.29L47.6963 26.0625C47.6736 26.0361 47.6507 26.0095 47.628 25.9828C47.2416 25.5315 46.8211 25.0401 46.5371 24.5889C46.2227 24.0894 45.7821 23.1881 46.1208 22.0983C46.4667 20.9867 47.3632 20.5028 47.9259 20.2811C48.4203 20.0862 49.0469 19.9448 49.6093 19.8179C49.6443 19.81 49.6789 19.8022 49.7131 19.7944L49.9384 19.7435L50.0683 19.5107C50.0853 19.4799 50.1027 19.4489 50.12 19.4178C50.4109 18.895 50.7275 18.3268 51.0504 17.9052ZM54.9168 28.359C54.9168 28.359 54.9168 28.3568 54.9173 28.3531L54.9168 28.359ZM23.1572 38.5286C28.1328 37.5646 33.4589 37.7808 37.7688 40.3515C38.3741 40.7126 38.9416 41.1624 39.4368 41.7184C40.4389 42.8443 40.9565 44.2435 40.9811 45.6464C41.4912 45.3174 42.0021 44.952 42.5211 44.56L47.3403 40.9195C49.7525 39.0974 53.2581 39.0971 55.6707 40.9187C57.8997 42.6019 58.7885 45.6227 57.1928 48.1806C56.0587 49.9987 54.3504 52.5131 52.6123 54.1232C50.8552 55.7507 48.3544 57.119 46.4627 58.032C44.1653 59.1408 41.6843 59.7539 39.2715 60.1443C34.3403 60.9424 29.2093 60.8203 24.3334 59.816C21.8417 59.3024 19.2522 59.0358 16.6933 59.0358H10.6668C9.56218 59.0358 8.66677 58.1403 8.66677 57.0358C8.66677 55.9312 9.56218 55.0358 10.6668 55.0358H16.6933C19.5255 55.0358 22.3854 55.3307 25.1405 55.8982C29.5459 56.8059 34.1869 56.9152 38.6323 56.1958C40.8429 55.8379 42.9069 55.3067 44.724 54.4296C46.5464 53.5499 48.5955 52.3915 49.8941 51.1886C51.2075 49.972 52.6776 47.8611 53.7989 46.0635C54.1376 45.5208 54.0907 44.7379 53.2603 44.111C52.2744 43.3664 50.7371 43.3667 49.7512 44.1112L44.932 47.7518C43.0083 49.2048 40.6403 50.7598 37.7032 51.2283C37.4069 51.2755 37.0984 51.3187 36.7781 51.3568C36.6253 51.3846 36.4664 51.4027 36.3021 51.4088C34.8027 51.5579 33.0661 51.5926 31.1501 51.4115C30.0504 51.3078 29.2432 50.332 29.3469 49.2323C29.4509 48.1326 30.4264 47.3254 31.5261 47.4294C33.1992 47.5872 34.7005 47.5523 35.9741 47.4216C35.9997 47.419 36.0256 47.4163 36.0512 47.4136C36.1045 47.3827 36.1856 47.3264 36.2923 47.2334C37.1443 46.4896 37.2203 45.2446 36.4491 44.3782C36.2536 44.1587 36.0128 43.9616 35.7197 43.7867C32.5701 41.908 28.3635 41.5942 23.918 42.4555C19.4979 43.3118 15.1065 45.2846 11.8237 47.6126C10.9227 48.2515 9.67432 48.039 9.03536 47.1382C8.3964 46.2371 8.60882 44.9888 9.50981 44.3496C13.2388 41.7054 18.1563 39.4974 23.1572 38.5286Z" fill="black"/>
</svg>
