<svg width="193" height="53" viewBox="0 0 193 53" fill="none" xmlns="http://www.w3.org/2000/svg">
<g filter="url(#filter0_d_63_413)">
<path d="M4 15C4 6.71573 10.7157 0 19 0H174C182.284 0 189 6.71573 189 15V30C189 38.2843 182.284 45 174 45H19C10.7157 45 4 38.2843 4 30V15Z" fill="#FF5701"/>
<path d="M19 0.5H174C182.008 0.5 188.5 6.99187 188.5 15V30C188.5 38.0081 182.008 44.5 174 44.5H19C10.9919 44.5 4.5 38.0081 4.5 30V15C4.5 6.99187 10.9919 0.5 19 0.5Z" stroke="black"/>
</g>
<defs>
<filter id="filter0_d_63_413" x="0" y="0" width="193" height="53" filterUnits="userSpaceOnUse" color-interpolation-filters="sRGB">
<feFlood flood-opacity="0" result="BackgroundImageFix"/>
<feColorMatrix in="SourceAlpha" type="matrix" values="0 0 0 0 0 0 0 0 0 0 0 0 0 0 0 0 0 0 127 0" result="hardAlpha"/>
<feOffset dy="4"/>
<feGaussianBlur stdDeviation="2"/>
<feComposite in2="hardAlpha" operator="out"/>
<feColorMatrix type="matrix" values="0 0 0 0 0 0 0 0 0 0 0 0 0 0 0 0 0 0 0.25 0"/>
<feBlend mode="normal" in2="BackgroundImageFix" result="effect1_dropShadow_63_413"/>
<feBlend mode="normal" in="SourceGraphic" in2="effect1_dropShadow_63_413" result="shape"/>
</filter>
</defs>
</svg>
