<svg width="56" height="56" viewBox="0 0 56 56" fill="none" xmlns="http://www.w3.org/2000/svg">
<path d="M12 40H4V52H12V40ZM32 24H24V52H32V24ZM52 4V52H44V4H52ZM44 0C42.9391 0 41.9217 0.421427 41.1716 1.17157C40.4214 1.92172 40 2.93913 40 4V52C40 53.0609 40.4214 54.0783 41.1716 54.8284C41.9217 55.5786 42.9391 56 44 56H52C53.0609 56 54.0783 55.5786 54.8284 54.8284C55.5786 54.0783 56 53.0609 56 52V4C56 2.93913 55.5786 1.92172 54.8284 1.17157C54.0783 0.421427 53.0609 0 52 0H44ZM20 24C20 22.9391 20.4214 21.9217 21.1716 21.1716C21.9217 20.4214 22.9391 20 24 20H32C33.0609 20 34.0783 20.4214 34.8284 21.1716C35.5786 21.9217 36 22.9391 36 24V52C36 53.0609 35.5786 54.0783 34.8284 54.8284C34.0783 55.5786 33.0609 56 32 56H24C22.9391 56 21.9217 55.5786 21.1716 54.8284C20.4214 54.0783 20 53.0609 20 52V24ZM0 40C0 38.9391 0.421427 37.9217 1.17157 37.1716C1.92172 36.4214 2.93913 36 4 36H12C13.0609 36 14.0783 36.4214 14.8284 37.1716C15.5786 37.9217 16 38.9391 16 40V52C16 53.0609 15.5786 54.0783 14.8284 54.8284C14.0783 55.5786 13.0609 56 12 56H4C2.93913 56 1.92172 55.5786 1.17157 54.8284C0.421427 54.0783 0 53.0609 0 52V40Z" fill="black"/>
</svg>
