<svg width="28" height="31" viewBox="0 0 28 31" fill="none" xmlns="http://www.w3.org/2000/svg">
<path d="M8.90532 28.848H5.42913C3.50928 28.848 1.95294 27.2867 1.95294 25.3606V13.0151C1.95294 11.997 2.39638 11.0298 3.16686 10.3672L11.8573 2.89428C13.1591 1.77486 15.0801 1.77486 16.3819 2.89428L25.0724 10.3672C25.8429 11.0298 26.2863 11.997 26.2863 13.0151V25.3606C26.2863 27.2867 24.73 28.848 22.8101 28.848H19.3339M8.90532 28.848V18.3858C8.90532 17.4228 9.6835 16.6422 10.6434 16.6422H17.5958C18.5558 16.6422 19.3339 17.4228 19.3339 18.3858V28.848M8.90532 28.848H19.3339" stroke="#464455" stroke-width="2.66667" stroke-linecap="round" stroke-linejoin="round"/>
</svg>
