<svg width="54" height="54" viewBox="0 0 54 54" fill="none" xmlns="http://www.w3.org/2000/svg">
<path d="M53.6667 27C53.6667 12.3067 41.6933 0.333374 27 0.333374C12.3067 0.333374 0.333344 12.3067 0.333344 27C0.333344 34.7334 3.66668 41.6934 8.94668 46.5734C8.94668 46.6 8.94668 46.6 8.92001 46.6267C9.18668 46.8934 9.50668 47.1067 9.77334 47.3467C9.93334 47.48 10.0667 47.6134 10.2267 47.72C10.7067 48.12 11.24 48.4934 11.7467 48.8667C11.9333 49 12.0933 49.1067 12.28 49.24C12.7867 49.5867 13.32 49.9067 13.88 50.2C14.0667 50.3067 14.28 50.44 14.4667 50.5467C15 50.84 15.56 51.1067 16.1467 51.3467C16.36 51.4534 16.5733 51.56 16.7867 51.64C17.3733 51.88 17.96 52.0934 18.5467 52.28C18.76 52.36 18.9733 52.44 19.1867 52.4934C19.8267 52.68 20.4667 52.84 21.1067 53C21.2933 53.0534 21.48 53.1067 21.6933 53.1334C22.44 53.2934 23.1867 53.4 23.96 53.48C24.0667 53.48 24.1733 53.5067 24.28 53.5334C25.1867 53.6134 26.0933 53.6667 27 53.6667C27.9067 53.6667 28.8133 53.6134 29.6933 53.5334C29.8 53.5334 29.9067 53.5067 30.0133 53.48C30.7867 53.4 31.5333 53.2934 32.28 53.1334C32.4667 53.1067 32.6533 53.0267 32.8667 53C33.5067 52.84 34.1733 52.7067 34.7867 52.4934C35 52.4134 35.2133 52.3334 35.4267 52.28C36.0133 52.0667 36.6267 51.88 37.1867 51.64C37.4 51.56 37.6133 51.4534 37.8267 51.3467C38.3867 51.1067 38.9467 50.84 39.5067 50.5467C39.72 50.44 39.9067 50.3067 40.0933 50.2C40.6267 49.88 41.16 49.5867 41.6933 49.24C41.88 49.1334 42.04 49 42.2267 48.8667C42.76 48.4934 43.2667 48.12 43.7467 47.72C43.9067 47.5867 44.04 47.4534 44.2 47.3467C44.4933 47.1067 44.7867 46.8667 45.0533 46.6267C45.0533 46.6 45.0533 46.6 45.0267 46.5734C50.3333 41.6934 53.6667 34.7334 53.6667 27ZM40.1733 40.2534C32.9467 35.4 21.1067 35.4 13.8267 40.2534C12.6533 41.0267 11.6933 41.9334 10.8933 42.92C6.84001 38.8134 4.33334 33.1867 4.33334 27C4.33334 14.4934 14.4933 4.33337 27 4.33337C39.5067 4.33337 49.6667 14.4934 49.6667 27C49.6667 33.1867 47.16 38.8134 43.1067 42.92C42.3333 41.9334 41.3467 41.0267 40.1733 40.2534Z" fill="#292D32"/>
<path d="M27 13.4792C21.48 13.4792 17 17.9592 17 23.4792C17 28.8926 21.24 33.2926 26.8667 33.4526C26.9467 33.4526 27.0533 33.4526 27.1067 33.4526C27.16 33.4526 27.24 33.4526 27.2933 33.4526C27.32 33.4526 27.3467 33.4526 27.3467 33.4526C32.7333 33.2659 36.9733 28.8926 37 23.4792C37 17.9592 32.52 13.4792 27 13.4792Z" fill="#292D32"/>
</svg>
