<svg width="27" height="31" viewBox="0 0 27 31" fill="none" xmlns="http://www.w3.org/2000/svg">
<path d="M8.32503 28.7073H4.88926C2.99174 28.7073 1.45349 27.151 1.45349 25.2311V12.9252C1.45349 11.9103 1.89178 10.9463 2.6533 10.2859L11.2427 2.83687C12.5294 1.72104 14.428 1.72104 15.7147 2.83687L24.3041 10.2859C25.0656 10.9463 25.5039 11.9103 25.5039 12.9252V25.2311C25.5039 27.151 23.9657 28.7073 22.0681 28.7073H18.6323M8.32503 28.7073V18.2787C8.32503 17.3188 9.09416 16.5406 10.0429 16.5406H16.9145C17.8632 16.5406 18.6323 17.3188 18.6323 18.2787V28.7073M8.32503 28.7073H18.6323" stroke="#464455" stroke-width="2.66667" stroke-linecap="round" stroke-linejoin="round"/>
</svg>
