<svg width="53" height="52" viewBox="0 0 53 52" fill="none" xmlns="http://www.w3.org/2000/svg">
<path d="M2.33334 2L3.03977 2.23547C6.55988 3.40885 8.31993 3.99552 9.32662 5.39227C10.3333 6.78899 10.3333 8.64424 10.3333 12.3548V19.3333C10.3333 26.8757 10.3333 30.6469 12.6765 32.9901C15.0196 35.3333 18.7909 35.3333 26.3333 35.3333H47.6667" stroke="black" stroke-width="4" stroke-linecap="round"/>
<path d="M17 42C19.2092 42 21 43.7909 21 46C21 48.2091 19.2092 50 17 50C14.7909 50 13 48.2091 13 46C13 43.7909 14.7909 42 17 42Z" stroke="black" stroke-width="4"/>
<path d="M41 42.0003C43.2091 42.0003 45 43.7909 45 46.0003C45 48.2093 43.2091 50.0003 41 50.0003C38.7909 50.0003 37 48.2093 37 46.0003C37 43.7909 38.7909 42.0003 41 42.0003Z" stroke="black" stroke-width="4"/>
<path d="M10.3333 10H40.8677C46.3477 10 49.0875 10 50.2733 11.798C51.4589 13.5961 50.3795 16.1145 48.2208 21.1515L47.0779 23.8181C46.0701 26.1696 45.5661 27.3453 44.5643 28.0061C43.5624 28.6667 42.2832 28.6667 39.7248 28.6667H10.3333" stroke="black" stroke-width="4"/>
</svg>
