<svg width="58" height="58" viewBox="0 0 58 58" fill="none" xmlns="http://www.w3.org/2000/svg">
<path fill-rule="evenodd" clip-rule="evenodd" d="M29 4.73468C28.6829 5.20535 28.2923 5.89916 27.7104 6.94279L27.3608 7.56983C27.3349 7.61639 27.308 7.66505 27.2803 7.71543C26.9909 8.24156 26.5976 8.95628 25.948 9.44935C25.2864 9.95153 24.4888 10.1271 23.9184 10.2527C23.8643 10.2646 23.8123 10.2761 23.7624 10.2873L23.0836 10.4409C21.8431 10.7216 21.0701 10.9012 20.5506 11.0828C20.8718 11.5654 21.411 12.2028 22.2855 13.2255L22.7483 13.7666C22.7823 13.8064 22.8178 13.8475 22.8544 13.8898C23.2484 14.3459 23.7725 14.9527 24.0149 15.7317C24.2547 16.5027 24.1733 17.3003 24.1115 17.91C24.1056 17.9669 24.1 18.0222 24.0947 18.0757L24.0248 18.7976C23.8997 20.0873 23.8229 20.9216 23.8251 21.5118C24.3376 21.3301 25.0397 21.0112 26.1109 20.5179L26.7467 20.2253C26.7933 20.2038 26.8424 20.1809 26.8933 20.157C27.4208 19.9101 28.1693 19.5599 29 19.5599C29.8309 19.5599 30.5792 19.9101 31.1069 20.157C31.1579 20.1809 31.2069 20.2038 31.2536 20.2253L31.8891 20.5179C32.9605 21.0113 33.6627 21.3302 34.1752 21.5118C34.1773 20.9216 34.1003 20.0873 33.9755 18.7976L33.9053 18.0757C33.9003 18.0222 33.8947 17.9669 33.8888 17.91C33.8269 17.3003 33.7456 16.5027 33.9853 15.7317C34.2277 14.9527 34.7517 14.3459 35.1459 13.8898C35.1824 13.8475 35.2179 13.8064 35.252 13.7665L35.7147 13.2255C36.5893 12.2028 37.1283 11.5654 37.4496 11.0828C36.9301 10.9012 36.1571 10.7216 34.9165 10.4409L34.2379 10.2873C34.188 10.2761 34.136 10.2646 34.0819 10.2527C33.5115 10.1271 32.7136 9.95153 32.0523 9.44935C31.4027 8.95628 31.0093 8.24153 30.7197 7.7154C30.692 7.66503 30.6653 7.61639 30.6395 7.56983L30.2899 6.94279C29.708 5.89916 29.3173 5.20535 29 4.73468ZM34.7413 21.6672C34.7443 21.6673 34.7459 21.6675 34.7459 21.6675L34.7413 21.6672ZM23.2543 21.6675C23.2543 21.6675 23.2559 21.6673 23.2589 21.6672L23.2543 21.6675ZM26.0219 2.02628C26.5971 1.27527 27.536 0.333374 29 0.333374C30.4643 0.333374 31.4032 1.27527 31.9784 2.02628C32.5323 2.74948 33.0992 3.76673 33.7155 4.87311C33.7381 4.91367 33.7608 4.95436 33.7837 4.99516L34.1331 5.62223C34.2312 5.79828 34.3072 5.93436 34.3747 6.05103C34.42 6.12943 34.4555 6.18865 34.484 6.23433C34.5288 6.24673 34.5856 6.26145 34.6584 6.27916C34.7837 6.30967 34.9296 6.34273 35.1205 6.38593L35.7992 6.53951C35.8456 6.54999 35.8917 6.56041 35.9379 6.57084C37.1296 6.84028 38.2419 7.09175 39.0819 7.42276C39.992 7.78143 41.0915 8.42785 41.5152 9.79039C41.9323 11.1311 41.4189 12.2886 40.9005 13.1123C40.4133 13.8862 39.6613 14.7653 38.8443 15.7204L38.292 16.3663C38.1619 16.5183 38.0619 16.6355 37.9768 16.7381C37.9069 16.8224 37.8587 16.8832 37.8243 16.9291C37.8288 17.0776 37.8477 17.2868 37.8867 17.6899L37.9699 18.5476C38.0939 19.8256 38.2072 20.992 38.1661 21.9107C38.1237 22.8652 37.8984 24.1427 36.764 25.004C35.5965 25.8899 34.2925 25.7171 33.3675 25.452C32.5019 25.204 31.4616 24.7251 30.3464 24.2112C30.3032 24.1912 30.2597 24.1712 30.2163 24.1512L29.5808 23.8587C29.4019 23.7763 29.2651 23.7134 29.1464 23.6611C29.0877 23.6352 29.0397 23.6148 29 23.5984C28.9603 23.6148 28.9123 23.6352 28.8539 23.6611C28.7349 23.7134 28.5981 23.7763 28.4195 23.8587L27.784 24.1512C27.7405 24.1712 27.6971 24.1912 27.6539 24.2112C26.5384 24.7251 25.4984 25.204 24.6325 25.452C23.7077 25.7171 22.4035 25.8899 21.2363 25.004C20.1017 24.1427 19.8765 22.8652 19.834 21.9107C19.7931 20.992 19.9063 19.8256 20.0303 18.5477C20.0346 18.5025 20.039 18.4573 20.0434 18.4118L20.1134 17.6899C20.1525 17.2868 20.1715 17.0776 20.176 16.9291C20.1415 16.8832 20.0933 16.8224 20.0235 16.7382C19.9384 16.6355 19.8382 16.5183 19.7083 16.3663L19.2455 15.8251C19.2156 15.7901 19.1857 15.7552 19.1559 15.7203C18.339 14.7653 17.5869 13.8861 17.0998 13.1123C16.5813 12.2886 16.0679 11.1311 16.4849 9.79039C16.9086 8.42785 18.0082 7.78143 18.9183 7.42276C19.7583 7.09175 20.8706 6.84028 22.0624 6.57084C22.1084 6.56044 22.1546 6.54999 22.2009 6.53951L22.8797 6.38593C23.0706 6.34273 23.2164 6.30969 23.3418 6.27916C23.4146 6.26143 23.4713 6.24673 23.5161 6.23436C23.5447 6.18865 23.5802 6.12943 23.6255 6.05103C23.6931 5.93436 23.7688 5.79828 23.8669 5.62223L24.2165 4.99516C24.2392 4.95436 24.2619 4.91367 24.2845 4.87311C24.9011 3.76673 25.468 2.74948 26.0219 2.02628ZM7.66677 18.871C7.80586 19.1279 8.10202 19.6521 8.58816 20.0212C9.11058 20.4178 9.73765 20.5498 9.99824 20.6047C10.0243 20.6102 10.0467 20.6149 10.0649 20.619L10.1198 20.6315L10.0327 20.7334C10.0193 20.749 10.0031 20.7674 9.98469 20.7884C9.80184 20.9968 9.39309 21.4625 9.2045 22.0689C9.0185 22.6671 9.08554 23.2796 9.11616 23.5595C9.11928 23.588 9.12202 23.6131 9.1241 23.6343L9.12696 23.664C8.87549 23.5436 8.30536 23.28 7.66677 23.28C7.02816 23.28 6.45802 23.5436 6.20656 23.664L6.20944 23.6343C6.21149 23.6131 6.21424 23.588 6.21736 23.5595C6.24797 23.2796 6.31501 22.6671 6.12901 22.0689C5.94042 21.4625 5.53168 20.9968 5.34882 20.7884C5.33037 20.7674 5.31424 20.749 5.30085 20.7334L5.21368 20.6315L5.26858 20.619C5.28685 20.6149 5.30922 20.6102 5.33528 20.6047C5.59586 20.5498 6.22293 20.4178 6.74536 20.0212C7.23149 19.6521 7.52765 19.1279 7.66677 18.871ZM6.08277 25.3531C6.08333 25.3568 6.08352 25.359 6.08349 25.359L6.08277 25.3531ZM9.25005 25.359C9.25 25.359 9.25018 25.3568 9.25074 25.3531L9.25005 25.359ZM5.38368 14.9052C5.7268 14.4571 6.45514 13.6667 7.66677 13.6667C8.87837 13.6667 9.60672 14.4571 9.94984 14.9052C10.2727 15.3268 10.5891 15.895 10.8802 16.4178C10.8976 16.4489 10.9148 16.4799 10.932 16.5107L11.0617 16.7435L11.287 16.7944C11.3214 16.8022 11.356 16.81 11.3908 16.8179C11.9532 16.9448 12.5799 17.0862 13.0743 17.2811C13.6369 17.5028 14.5336 17.9867 14.8793 19.0983C15.2182 20.1881 14.7777 21.0894 14.4632 21.5889C14.1792 22.0401 13.7586 22.5315 13.3723 22.9828C13.3494 23.0095 13.3266 23.0361 13.3041 23.0625L13.1095 23.29L13.1404 23.6095C13.1438 23.6441 13.1472 23.679 13.1506 23.7139C13.2094 24.3182 13.2725 24.9672 13.2488 25.4998C13.2235 26.0667 13.0836 27.0923 12.1533 27.7984C11.1903 28.5294 10.1419 28.3499 9.57504 28.1875C9.0656 28.0414 8.48013 27.7715 7.95413 27.5288C7.92138 27.5139 7.88888 27.499 7.85661 27.484L7.66674 27.3966L7.4769 27.484C7.44466 27.499 7.41213 27.5139 7.37938 27.5288C6.85338 27.7715 6.26792 28.0414 5.75848 28.1875C5.19162 28.3499 4.14317 28.5294 3.18021 27.7984C2.24992 27.0923 2.10997 26.0667 2.08472 25.4998C2.06098 24.9672 2.12413 24.3182 2.18296 23.7139C2.18634 23.679 2.18973 23.6441 2.19309 23.6095L2.22405 23.29L2.02946 23.0625C2.00688 23.0361 1.98413 23.0095 1.96125 22.9828C1.57496 22.5315 1.15434 22.0401 0.870318 21.5889C0.555865 21.0894 0.115358 20.1881 0.454265 19.0983C0.799945 17.9867 1.69658 17.5028 2.25925 17.2811C2.75357 17.0862 3.38032 16.9448 3.94269 16.8179C3.97754 16.81 4.01216 16.8022 4.04648 16.7944L4.27178 16.7435L4.40154 16.5107C4.41869 16.4799 4.43594 16.4489 4.45328 16.4178C4.7444 15.895 5.0608 15.3268 5.38368 14.9052ZM50.3333 18.871C50.4725 19.1279 50.7688 19.6521 51.2549 20.0212C51.7773 20.4178 52.4043 20.5498 52.6648 20.6047C52.6909 20.6102 52.7133 20.6149 52.7315 20.619L52.7864 20.6315L52.6995 20.7334C52.6859 20.749 52.6699 20.7674 52.6515 20.7884C52.4685 20.9968 52.0597 21.4625 51.8712 22.0689C51.6851 22.6671 51.7523 23.2796 51.7829 23.5595C51.7859 23.588 51.7888 23.6131 51.7907 23.6343L51.7936 23.664C51.5421 23.5436 50.972 23.28 50.3333 23.28C49.6949 23.28 49.1248 23.5436 48.8733 23.664L48.876 23.6343C48.8781 23.6131 48.8808 23.588 48.884 23.5595C48.9147 23.2796 48.9816 22.6671 48.7957 22.0689C48.6072 21.4625 48.1984 20.9968 48.0155 20.7884C47.9971 20.7674 47.9808 20.749 47.9675 20.7334L47.8803 20.6315L47.9352 20.619C47.9536 20.6149 47.976 20.6102 48.0019 20.6047C48.2624 20.5498 48.8896 20.4178 49.412 20.0212C49.8981 19.6521 50.1944 19.1279 50.3333 18.871ZM48.7493 25.3531C48.7501 25.3574 48.7501 25.3592 48.7501 25.359L48.7493 25.3531ZM48.0504 14.9052C48.3933 14.4571 49.1219 13.6667 50.3333 13.6667C51.5451 13.6667 52.2733 14.4571 52.6165 14.9052C52.9395 15.3268 53.2557 15.895 53.5469 16.4178C53.5643 16.4489 53.5816 16.4799 53.5987 16.5107L53.7283 16.7435L53.9536 16.7944C53.988 16.8022 54.0227 16.81 54.0576 16.8179C54.62 16.9448 55.2467 17.0863 55.7411 17.2811C56.3035 17.5028 57.2003 17.9867 57.5459 19.0983C57.8848 20.1881 57.4443 21.0894 57.1299 21.5889C56.8459 22.0401 56.4251 22.5315 56.0389 22.9828C56.016 23.0095 55.9933 23.0361 55.9707 23.0625L55.776 23.29L55.8072 23.6095C55.8104 23.6441 55.8139 23.679 55.8173 23.7136C55.876 24.3182 55.9392 24.9672 55.9155 25.4998C55.8901 26.0667 55.7504 27.0923 54.82 27.7984C53.8571 28.5294 52.8085 28.3499 52.2416 28.1875C51.7323 28.0414 51.1469 27.7715 50.6208 27.5291C50.588 27.5139 50.5555 27.499 50.5232 27.484L50.3333 27.3966L50.1435 27.484C50.1112 27.499 50.0789 27.5139 50.0461 27.5288C49.52 27.7715 48.9347 28.0414 48.4251 28.1875C47.8584 28.3499 46.8099 28.5294 45.8469 27.7984C44.9165 27.0923 44.7765 26.0667 44.7515 25.4998C44.7277 24.9672 44.7907 24.3182 44.8496 23.7139C44.8531 23.679 44.8565 23.6441 44.8597 23.6095L44.8907 23.29L44.6963 23.0625C44.6736 23.0361 44.6507 23.0095 44.628 22.9828C44.2416 22.5315 43.8211 22.0401 43.5371 21.5889C43.2227 21.0894 42.7821 20.1881 43.1208 19.0983C43.4667 17.9867 44.3632 17.5028 44.9259 17.2811C45.4203 17.0862 46.0469 16.9448 46.6093 16.8179C46.6443 16.81 46.6789 16.8022 46.7131 16.7944L46.9384 16.7435L47.0683 16.5107C47.0853 16.4799 47.1027 16.4489 47.12 16.4178C47.4109 15.895 47.7275 15.3268 48.0504 14.9052ZM51.9168 25.359C51.9168 25.359 51.9168 25.3568 51.9173 25.3531L51.9168 25.359ZM20.1572 35.5286C25.1328 34.5646 30.4589 34.7808 34.7688 37.3515C35.3741 37.7126 35.9416 38.1624 36.4368 38.7184C37.4389 39.8443 37.9565 41.2435 37.9811 42.6464C38.4912 42.3174 39.0021 41.952 39.5211 41.56L44.3403 37.9195C46.7525 36.0974 50.2581 36.0971 52.6707 37.9187C54.8997 39.6019 55.7885 42.6227 54.1928 45.1806C53.0587 46.9987 51.3504 49.5131 49.6123 51.1232C47.8552 52.7507 45.3544 54.119 43.4627 55.032C41.1653 56.1408 38.6843 56.7539 36.2715 57.1443C31.3403 57.9424 26.2093 57.8203 21.3334 56.816C18.8416 56.3024 16.2522 56.0358 13.6933 56.0358H7.66677C6.56218 56.0358 5.66677 55.1403 5.66677 54.0358C5.66677 52.9312 6.56218 52.0358 7.66677 52.0358H13.6933C16.5255 52.0358 19.3854 52.3307 22.1405 52.8982C26.5459 53.8059 31.1869 53.9152 35.6323 53.1958C37.8429 52.8379 39.9069 52.3067 41.724 51.4296C43.5464 50.5499 45.5955 49.3915 46.8941 48.1886C48.2075 46.972 49.6776 44.8611 50.7989 43.0635C51.1376 42.5208 51.0907 41.7379 50.2603 41.111C49.2744 40.3664 47.7371 40.3667 46.7512 41.1112L41.932 44.7518C40.0083 46.2048 37.6403 47.7598 34.7032 48.2283C34.4069 48.2755 34.0984 48.3187 33.7781 48.3568C33.6253 48.3846 33.4664 48.4027 33.3021 48.4088C31.8027 48.5579 30.0661 48.5926 28.1501 48.4115C27.0504 48.3078 26.2432 47.332 26.3469 46.2323C26.4509 45.1326 27.4264 44.3254 28.5261 44.4294C30.1992 44.5872 31.7005 44.5523 32.9741 44.4216C32.9997 44.419 33.0256 44.4163 33.0512 44.4136C33.1045 44.3827 33.1856 44.3264 33.2923 44.2334C34.1443 43.4896 34.2203 42.2446 33.4491 41.3782C33.2536 41.1587 33.0128 40.9616 32.7197 40.7867C29.5701 38.908 25.3635 38.5942 20.918 39.4555C16.4979 40.3118 12.1065 42.2846 8.8237 44.6126C7.92272 45.2515 6.67432 45.039 6.03536 44.1382C5.3964 43.2371 5.60882 41.9888 6.50981 41.3496C10.2388 38.7054 15.1563 36.4974 20.1572 35.5286Z" fill="black"/>
</svg>
